<svg width="150" height="51" viewBox="0 0 150 51" fill="none" xmlns="http://www.w3.org/2000/svg">
<path d="M116.799 49.3936V38.4548L116.721 30.6524C116.721 29.4896 116.413 29.2755 115.486 29.2755H112.243C111.502 29.2755 111.239 29.5355 111.239 30.2699V49.3936C111.239 50.3727 112.011 50.5155 112.397 50.4645H115.486C116.536 50.4645 116.799 49.827 116.799 49.3936Z" fill="white"/>
<path d="M116.953 24.9918C116.953 26.5972 115.639 27.8986 114.019 27.8986C112.398 27.8986 111.085 26.5972 111.085 24.9918C111.085 23.3864 112.398 22.085 114.019 22.085C115.639 22.085 116.953 23.3864 116.953 24.9918Z" fill="white"/>
<path d="M134.866 45.6453C129.493 45.6453 125.138 41.3301 125.138 36.007C125.138 30.6839 129.493 26.3687 134.866 26.3687C140.239 26.3687 144.595 30.6839 144.595 36.007C144.595 38.0449 143.861 39.8381 142.678 41.3014L140.437 39.0812C139.417 38.0699 137.762 38.0699 136.741 39.0812C135.72 40.0925 135.72 41.7321 136.741 42.7434L138.446 44.4615L142.819 48.7653L143.95 49.8858C144.971 50.8971 146.626 50.8971 147.647 49.8858C148.668 48.8745 148.668 47.2349 147.647 46.2236L146.731 45.3158C148.778 42.7586 150 39.5242 150 36.007C150 27.7266 143.224 21.014 134.866 21.014C126.508 21.014 119.733 27.7266 119.733 36.007C119.733 44.2874 126.508 51 134.866 51C134.866 51 137.723 50.847 137.723 48.3227C137.723 45.7983 134.866 45.6453 134.866 45.6453Z" fill="white"/>
<path d="M68.9267 45.8686C65.5614 45.8686 62.8332 43.1658 62.8332 39.8317C62.8332 36.4977 65.5614 33.7949 68.9267 33.7949C69.1945 33.7949 75.567 33.4062 76.7682 39.8317L76.7252 48.7816C76.7252 50.1585 77.4365 50.541 78.1922 50.541H80.663C81.4306 50.541 82.0529 50.082 82.0529 48.7816V30.6524C82.0529 29.8919 81.4306 29.2755 80.663 29.2755H78.1922L76.8132 30.48L76.8083 31.4938C74.5632 29.505 71.0282 28.6635 68.9267 28.6635C62.7008 28.6635 57.6537 33.6637 57.6537 39.8317C57.6537 45.9998 62.7008 51 68.9267 51C71.1019 51 73.0773 50.0194 74.7949 48.9301C74.7949 48.9301 75.7987 47.8267 74.7949 46.1043C73.7139 44.2494 72.1974 44.9262 72.1974 44.9262C71.2525 45.5229 70.1304 45.8686 68.9267 45.8686Z" fill="white"/>
<path d="M76.8132 30.48L78.1922 29.2755C77.9082 29.2755 77.6198 29.3562 77.3807 29.505C77.222 29.6037 77.085 29.7324 76.9854 29.8874C76.8773 30.0556 76.8132 30.2547 76.8132 30.48Z" fill="white"/>
<path d="M41.2074 45.8686C37.842 45.8686 35.1138 43.1658 35.1138 39.8317C35.1138 36.4977 37.842 33.7949 41.2074 33.7949C41.4752 33.7949 47.8477 33.4062 49.0489 39.8317L49.0059 48.7816C49.0059 50.1585 49.7171 50.541 50.4729 50.541H52.9437C53.7113 50.541 54.3335 50.082 54.3335 48.7816V30.6524C54.3335 29.8919 53.7113 29.2755 52.9437 29.2755H50.4729L49.0939 30.48L49.089 31.4938C46.8439 29.505 43.3089 28.6635 41.2074 28.6635C34.9815 28.6635 29.9343 33.6637 29.9343 39.8317C29.9343 45.9998 34.9815 51 41.2074 51C43.3825 51 45.358 50.0194 47.0756 48.9301C47.0756 48.9301 48.0793 47.8267 47.0756 46.1043C45.9946 44.2494 44.4781 44.9262 44.4781 44.9262C43.5332 45.5229 42.411 45.8686 41.2074 45.8686Z" fill="white"/>
<path d="M49.0939 30.48L50.4729 29.2755C50.1888 29.2755 49.9005 29.3562 49.6614 29.505C49.5027 29.6037 49.3656 29.7324 49.266 29.8874C49.1579 30.0556 49.0939 30.2547 49.0939 30.48Z" fill="white"/>
<path d="M102.437 38.4548C102.437 36.2465 100.188 33.7122 97.0322 33.7122C93.1715 33.7122 91.2412 36.16 91.2412 38.4548C91.2412 42.5091 91.164 49.3936 91.164 49.3936C91.164 49.8271 90.9014 50.4645 89.8513 50.4645H86.7628C86.3768 50.5155 85.6047 50.3727 85.6047 49.3936V30.2699C85.6047 29.5356 85.8672 29.2755 86.6084 29.2755H89.8513C90.7779 29.2755 91.0011 30.7188 91.0868 30.6524C94.6385 27.8986 99.9755 28.219 103.595 30.6524C107.842 33.7122 107.842 38.3019 107.842 40.3672V49.3936C107.79 49.8271 107.518 50.388 106.838 50.388H103.595C103.209 50.4135 102.437 50.3727 102.437 49.3936V38.4548Z" fill="white"/>
<path d="M19.4413 14.6474C20.7271 15.9213 20.7271 17.9866 19.4413 19.2605C18.1554 20.5344 16.0706 20.5344 14.7848 19.2605L0.964377 5.56856C-0.321462 4.29467 -0.321458 2.2293 0.964383 0.955415C2.25023 -0.318472 4.33499 -0.318472 5.62083 0.955417L19.4413 14.6474Z" fill="white"/>
<path d="M26.8194 29.4875V46.5002C26.8194 48.9854 25.9638 51 23.4554 51C20.9469 51 20.6803 48.9854 20.6803 46.5002V28.3205C20.6803 23.1553 22.7837 19.8414 27.845 14.8272L40.9635 1.83065C42.7373 0.073382 44.4352 -0.510107 46.2089 1.24716C47.9827 3.00442 46.8047 4.68653 45.031 6.44379L31.9124 19.4404C30.6706 20.6707 26.8194 24.6141 26.8194 29.4875Z" fill="white"/>
</svg>
